<?xml version="1.0" encoding="UTF-8"?>
<svg xmlns="http://www.w3.org/2000/svg" xmlns:xlink="http://www.w3.org/1999/xlink" width="485.071875" height="201.952813" viewBox="0 0 485.071875 201.952813">
<defs>
<g>
<g id="glyph-0-0">
<path d="M 1.238281 -0.828125 L 2.851562 -0.828125 L 2.851562 -6.390625 L 1.101562 -6.039062 L 1.101562 -6.941406 L 2.839844 -7.289062 L 3.828125 -7.289062 L 3.828125 -0.828125 L 5.441406 -0.828125 L 5.441406 0 L 1.238281 0 Z M 1.238281 -0.828125 "/>
</g>
<g id="glyph-0-1">
<path d="M 3.179688 -6.640625 C 2.671875 -6.640625 2.289062 -6.390625 2.03125 -5.890625 C 1.769531 -5.390625 1.648438 -4.640625 1.648438 -3.640625 C 1.648438 -2.640625 1.769531 -1.890625 2.03125 -1.390625 C 2.289062 -0.890625 2.671875 -0.640625 3.179688 -0.640625 C 3.691406 -0.640625 4.070312 -0.890625 4.328125 -1.390625 C 4.578125 -1.890625 4.710938 -2.640625 4.710938 -3.640625 C 4.710938 -4.640625 4.578125 -5.390625 4.328125 -5.890625 C 4.070312 -6.390625 3.691406 -6.640625 3.179688 -6.640625 Z M 3.179688 -7.421875 C 3.988281 -7.421875 4.609375 -7.089844 5.050781 -6.449219 C 5.480469 -5.800781 5.699219 -4.859375 5.699219 -3.640625 C 5.699219 -2.410156 5.480469 -1.46875 5.050781 -0.828125 C 4.609375 -0.191406 3.988281 0.128906 3.171875 0.128906 C 2.351562 0.128906 1.730469 -0.191406 1.300781 -0.828125 C 0.871094 -1.46875 0.660156 -2.410156 0.660156 -3.640625 C 0.660156 -4.859375 0.871094 -5.800781 1.300781 -6.449219 C 1.730469 -7.089844 2.359375 -7.421875 3.179688 -7.421875 Z M 3.179688 -7.421875 "/>
</g>
<g id="glyph-0-2">
<path d="M 4.441406 -3.421875 C 4.648438 -3.339844 4.859375 -3.191406 5.058594 -2.960938 C 5.261719 -2.71875 5.460938 -2.398438 5.660156 -1.988281 L 6.660156 0 L 5.601562 0 L 4.671875 -1.871094 C 4.429688 -2.351562 4.191406 -2.679688 3.96875 -2.839844 C 3.738281 -3 3.429688 -3.078125 3.039062 -3.078125 L 1.96875 -3.078125 L 1.96875 0 L 0.980469 0 L 0.980469 -7.289062 L 3.210938 -7.289062 C 4.039062 -7.289062 4.660156 -7.109375 5.070312 -6.769531 C 5.480469 -6.421875 5.691406 -5.890625 5.691406 -5.191406 C 5.691406 -4.730469 5.578125 -4.339844 5.371094 -4.039062 C 5.148438 -3.738281 4.839844 -3.53125 4.441406 -3.421875 Z M 1.96875 -6.480469 L 1.96875 -3.890625 L 3.210938 -3.890625 C 3.679688 -3.890625 4.039062 -4 4.28125 -4.21875 C 4.519531 -4.441406 4.648438 -4.761719 4.648438 -5.191406 C 4.648438 -5.609375 4.519531 -5.929688 4.28125 -6.148438 C 4.039062 -6.371094 3.679688 -6.480469 3.210938 -6.480469 Z M 1.96875 -6.480469 "/>
</g>
<g id="glyph-0-3">
<path d="M 3.058594 -4.839844 C 2.578125 -4.839844 2.199219 -4.648438 1.921875 -4.269531 C 1.640625 -3.890625 1.5 -3.378906 1.5 -2.730469 C 1.5 -2.070312 1.628906 -1.558594 1.910156 -1.179688 C 2.191406 -0.800781 2.570312 -0.621094 3.058594 -0.621094 C 3.539062 -0.621094 3.921875 -0.800781 4.199219 -1.179688 C 4.480469 -1.558594 4.621094 -2.070312 4.621094 -2.730469 C 4.621094 -3.371094 4.480469 -3.890625 4.199219 -4.269531 C 3.921875 -4.648438 3.539062 -4.839844 3.058594 -4.839844 Z M 3.058594 -5.601562 C 3.839844 -5.601562 4.449219 -5.339844 4.898438 -4.839844 C 5.339844 -4.328125 5.570312 -3.628906 5.570312 -2.730469 C 5.570312 -1.828125 5.339844 -1.128906 4.898438 -0.628906 C 4.449219 -0.121094 3.839844 0.128906 3.058594 0.128906 C 2.269531 0.128906 1.648438 -0.121094 1.210938 -0.628906 C 0.769531 -1.128906 0.550781 -1.828125 0.550781 -2.730469 C 0.550781 -3.628906 0.769531 -4.328125 1.210938 -4.839844 C 1.648438 -5.339844 2.269531 -5.601562 3.058594 -5.601562 Z M 3.058594 -5.601562 "/>
</g>
<g id="glyph-0-4">
<path d="M 0.421875 -5.46875 L 1.320312 -5.46875 L 2.441406 -1.199219 L 3.558594 -5.46875 L 4.621094 -5.46875 L 5.738281 -1.199219 L 6.859375 -5.46875 L 7.761719 -5.46875 L 6.328125 0 L 5.269531 0 L 4.089844 -4.480469 L 2.910156 0 L 1.851562 0 Z M 0.421875 -5.46875 "/>
</g>
<g id="glyph-0-5">
</g>
<g id="glyph-0-6">
<path d="M 4.429688 -5.308594 L 4.429688 -4.460938 C 4.171875 -4.578125 3.910156 -4.679688 3.640625 -4.75 C 3.359375 -4.808594 3.078125 -4.851562 2.789062 -4.851562 C 2.339844 -4.851562 2 -4.78125 1.78125 -4.640625 C 1.558594 -4.5 1.449219 -4.300781 1.449219 -4.03125 C 1.449219 -3.820312 1.53125 -3.660156 1.691406 -3.539062 C 1.851562 -3.421875 2.171875 -3.300781 2.648438 -3.199219 L 2.960938 -3.128906 C 3.601562 -2.988281 4.050781 -2.789062 4.320312 -2.550781 C 4.578125 -2.300781 4.71875 -1.949219 4.71875 -1.511719 C 4.71875 -1 4.519531 -0.601562 4.121094 -0.308594 C 3.71875 -0.0117188 3.160156 0.128906 2.460938 0.128906 C 2.160156 0.128906 1.859375 0.101562 1.539062 0.0507812 C 1.21875 0 0.890625 -0.078125 0.539062 -0.199219 L 0.539062 -1.128906 C 0.871094 -0.949219 1.199219 -0.820312 1.519531 -0.738281 C 1.839844 -0.648438 2.160156 -0.609375 2.480469 -0.609375 C 2.898438 -0.609375 3.230469 -0.679688 3.460938 -0.820312 C 3.679688 -0.960938 3.800781 -1.171875 3.800781 -1.441406 C 3.800781 -1.679688 3.710938 -1.871094 3.550781 -2 C 3.390625 -2.128906 3.03125 -2.261719 2.46875 -2.378906 L 2.160156 -2.449219 C 1.601562 -2.570312 1.191406 -2.75 0.949219 -2.988281 C 0.699219 -3.230469 0.578125 -3.558594 0.578125 -3.988281 C 0.578125 -4.5 0.761719 -4.898438 1.121094 -5.179688 C 1.480469 -5.460938 2 -5.601562 2.679688 -5.601562 C 3.011719 -5.601562 3.320312 -5.570312 3.621094 -5.519531 C 3.910156 -5.46875 4.179688 -5.398438 4.429688 -5.308594 Z M 4.429688 -5.308594 "/>
</g>
<g id="glyph-0-7">
<path d="M 0.941406 -5.46875 L 1.839844 -5.46875 L 1.839844 0 L 0.941406 0 Z M 0.941406 -7.601562 L 1.839844 -7.601562 L 1.839844 -6.460938 L 0.941406 -6.460938 Z M 0.941406 -7.601562 "/>
</g>
<g id="glyph-0-8">
<path d="M 0.550781 -5.46875 L 4.820312 -5.46875 L 4.820312 -4.648438 L 1.441406 -0.71875 L 4.820312 -0.71875 L 4.820312 0 L 0.429688 0 L 0.429688 -0.820312 L 3.808594 -4.75 L 0.550781 -4.75 Z M 0.550781 -5.46875 "/>
</g>
<g id="glyph-0-9">
<path d="M 5.621094 -2.960938 L 5.621094 -2.519531 L 1.488281 -2.519531 C 1.53125 -1.898438 1.710938 -1.421875 2.050781 -1.101562 C 2.378906 -0.78125 2.839844 -0.621094 3.441406 -0.621094 C 3.78125 -0.621094 4.121094 -0.660156 4.441406 -0.738281 C 4.761719 -0.820312 5.089844 -0.949219 5.410156 -1.128906 L 5.410156 -0.28125 C 5.089844 -0.140625 4.761719 -0.03125 4.421875 0.03125 C 4.078125 0.0898438 3.730469 0.128906 3.390625 0.128906 C 2.511719 0.128906 1.820312 -0.121094 1.308594 -0.621094 C 0.800781 -1.121094 0.550781 -1.808594 0.550781 -2.679688 C 0.550781 -3.570312 0.789062 -4.28125 1.269531 -4.808594 C 1.75 -5.328125 2.410156 -5.601562 3.230469 -5.601562 C 3.96875 -5.601562 4.550781 -5.359375 4.980469 -4.890625 C 5.398438 -4.410156 5.621094 -3.769531 5.621094 -2.960938 Z M 4.71875 -3.21875 C 4.710938 -3.710938 4.570312 -4.101562 4.308594 -4.398438 C 4.039062 -4.691406 3.679688 -4.839844 3.238281 -4.839844 C 2.738281 -4.839844 2.339844 -4.691406 2.039062 -4.410156 C 1.738281 -4.128906 1.558594 -3.730469 1.519531 -3.21875 Z M 4.71875 -3.21875 "/>
</g>
<g id="glyph-0-10">
<path d="M 0.859375 -7.601562 L 2.929688 -7.601562 L 2.929688 -6.898438 L 1.761719 -6.898438 L 1.761719 0.609375 L 2.929688 0.609375 L 2.929688 1.308594 L 0.859375 1.308594 Z M 0.859375 -7.601562 "/>
</g>
<g id="glyph-0-11">
<path d="M 0.980469 -7.289062 L 1.96875 -7.289062 L 1.96875 -4.210938 L 5.238281 -7.289062 L 6.511719 -7.289062 L 2.890625 -3.890625 L 6.769531 0 L 5.46875 0 L 1.96875 -3.511719 L 1.96875 0 L 0.980469 0 Z M 0.980469 -7.289062 "/>
</g>
<g id="glyph-0-12">
<path d="M 1.96875 -3.480469 L 1.96875 -0.808594 L 3.550781 -0.808594 C 4.078125 -0.808594 4.46875 -0.921875 4.730469 -1.140625 C 4.980469 -1.359375 5.109375 -1.691406 5.109375 -2.148438 C 5.109375 -2.601562 4.980469 -2.929688 4.730469 -3.148438 C 4.46875 -3.371094 4.078125 -3.480469 3.550781 -3.480469 Z M 1.96875 -6.480469 L 1.96875 -4.28125 L 3.429688 -4.28125 C 3.910156 -4.28125 4.261719 -4.371094 4.5 -4.550781 C 4.738281 -4.730469 4.859375 -5 4.859375 -5.378906 C 4.859375 -5.738281 4.738281 -6.019531 4.5 -6.199219 C 4.261719 -6.378906 3.910156 -6.480469 3.429688 -6.480469 Z M 0.980469 -7.289062 L 3.5 -7.289062 C 4.25 -7.289062 4.828125 -7.128906 5.238281 -6.820312 C 5.640625 -6.5 5.851562 -6.058594 5.851562 -5.488281 C 5.851562 -5.039062 5.738281 -4.679688 5.53125 -4.421875 C 5.320312 -4.160156 5.019531 -3.988281 4.621094 -3.929688 C 5.101562 -3.820312 5.480469 -3.601562 5.75 -3.269531 C 6.011719 -2.941406 6.148438 -2.53125 6.148438 -2.039062 C 6.148438 -1.378906 5.921875 -0.878906 5.480469 -0.53125 C 5.039062 -0.171875 4.410156 0 3.601562 0 L 0.980469 0 Z M 0.980469 -7.289062 "/>
</g>
<g id="glyph-0-13">
<path d="M 3.039062 -7.601562 L 3.039062 1.308594 L 0.96875 1.308594 L 0.96875 0.609375 L 2.140625 0.609375 L 2.140625 -6.898438 L 0.96875 -6.898438 L 0.96875 -7.601562 Z M 3.039062 -7.601562 "/>
</g>
<g id="glyph-0-14">
<path d="M 0.980469 -7.289062 L 1.96875 -7.289062 L 1.96875 -0.828125 L 5.519531 -0.828125 L 5.519531 0 L 0.980469 0 Z M 0.980469 -7.289062 "/>
</g>
<g id="glyph-0-15">
<path d="M 1.921875 -0.828125 L 5.359375 -0.828125 L 5.359375 0 L 0.730469 0 L 0.730469 -0.828125 C 1.101562 -1.210938 1.609375 -1.730469 2.261719 -2.390625 C 2.898438 -3.039062 3.308594 -3.460938 3.480469 -3.648438 C 3.800781 -4 4.019531 -4.300781 4.140625 -4.550781 C 4.261719 -4.789062 4.328125 -5.039062 4.328125 -5.28125 C 4.328125 -5.660156 4.191406 -5.980469 3.921875 -6.21875 C 3.648438 -6.460938 3.300781 -6.589844 2.859375 -6.589844 C 2.550781 -6.589844 2.21875 -6.53125 1.878906 -6.429688 C 1.539062 -6.320312 1.171875 -6.160156 0.78125 -5.941406 L 0.78125 -6.941406 C 1.179688 -7.101562 1.550781 -7.21875 1.890625 -7.300781 C 2.230469 -7.378906 2.550781 -7.421875 2.839844 -7.421875 C 3.589844 -7.421875 4.191406 -7.230469 4.640625 -6.851562 C 5.089844 -6.46875 5.320312 -5.96875 5.320312 -5.339844 C 5.320312 -5.039062 5.261719 -4.75 5.148438 -4.488281 C 5.039062 -4.21875 4.839844 -3.898438 4.539062 -3.539062 C 4.460938 -3.441406 4.199219 -3.171875 3.761719 -2.71875 C 3.320312 -2.269531 2.710938 -1.640625 1.921875 -0.828125 Z M 1.921875 -0.828125 "/>
</g>
<g id="glyph-0-16">
<path d="M 4.058594 -3.929688 C 4.53125 -3.828125 4.898438 -3.621094 5.160156 -3.300781 C 5.421875 -2.980469 5.558594 -2.578125 5.558594 -2.121094 C 5.558594 -1.398438 5.308594 -0.839844 4.820312 -0.449219 C 4.320312 -0.0585938 3.621094 0.128906 2.710938 0.128906 C 2.398438 0.128906 2.078125 0.101562 1.761719 0.0390625 C 1.441406 -0.0117188 1.101562 -0.101562 0.761719 -0.21875 L 0.761719 -1.171875 C 1.03125 -1.011719 1.328125 -0.890625 1.660156 -0.808594 C 1.980469 -0.730469 2.320312 -0.691406 2.679688 -0.691406 C 3.300781 -0.691406 3.769531 -0.808594 4.089844 -1.050781 C 4.410156 -1.289062 4.578125 -1.648438 4.578125 -2.121094 C 4.578125 -2.539062 4.429688 -2.878906 4.128906 -3.121094 C 3.828125 -3.359375 3.410156 -3.488281 2.871094 -3.488281 L 2.019531 -3.488281 L 2.019531 -4.300781 L 2.910156 -4.300781 C 3.390625 -4.300781 3.761719 -4.390625 4.019531 -4.589844 C 4.28125 -4.78125 4.410156 -5.058594 4.410156 -5.429688 C 4.410156 -5.800781 4.269531 -6.089844 4.011719 -6.289062 C 3.738281 -6.488281 3.359375 -6.589844 2.871094 -6.589844 C 2.601562 -6.589844 2.308594 -6.558594 2 -6.5 C 1.691406 -6.441406 1.351562 -6.351562 0.980469 -6.230469 L 0.980469 -7.109375 C 1.351562 -7.210938 1.699219 -7.289062 2.03125 -7.339844 C 2.351562 -7.390625 2.660156 -7.421875 2.960938 -7.421875 C 3.699219 -7.421875 4.289062 -7.25 4.730469 -6.910156 C 5.171875 -6.570312 5.390625 -6.109375 5.390625 -5.53125 C 5.390625 -5.128906 5.269531 -4.789062 5.039062 -4.511719 C 4.808594 -4.230469 4.480469 -4.03125 4.058594 -3.929688 Z M 4.058594 -3.929688 "/>
</g>
<g id="glyph-1-0">
<path d="M 2.226562 -4.648438 C 1.867188 -4.648438 1.601562 -4.472656 1.421875 -4.121094 C 1.238281 -3.773438 1.15625 -3.246094 1.15625 -2.546875 C 1.15625 -1.847656 1.238281 -1.324219 1.421875 -0.972656 C 1.601562 -0.621094 1.867188 -0.449219 2.226562 -0.449219 C 2.582031 -0.449219 2.847656 -0.621094 3.03125 -0.972656 C 3.207031 -1.324219 3.296875 -1.847656 3.296875 -2.546875 C 3.296875 -3.246094 3.207031 -3.773438 3.03125 -4.121094 C 2.847656 -4.472656 2.582031 -4.648438 2.226562 -4.648438 Z M 2.226562 -5.195312 C 2.792969 -5.195312 3.226562 -4.964844 3.535156 -4.515625 C 3.835938 -4.058594 3.988281 -3.402344 3.988281 -2.546875 C 3.988281 -1.6875 3.835938 -1.027344 3.535156 -0.582031 C 3.226562 -0.132812 2.792969 0.0898438 2.21875 0.0898438 C 1.644531 0.0898438 1.210938 -0.132812 0.910156 -0.582031 C 0.609375 -1.027344 0.460938 -1.6875 0.460938 -2.546875 C 0.460938 -3.402344 0.609375 -4.058594 0.910156 -4.515625 C 1.210938 -4.964844 1.652344 -5.195312 2.226562 -5.195312 Z M 2.226562 -5.195312 "/>
</g>
<g id="glyph-1-1">
<path d="M 0.867188 -0.582031 L 1.996094 -0.582031 L 1.996094 -4.472656 L 0.769531 -4.226562 L 0.769531 -4.859375 L 1.988281 -5.101562 L 2.679688 -5.101562 L 2.679688 -0.582031 L 3.808594 -0.582031 L 3.808594 0 L 0.867188 0 Z M 0.867188 -0.582031 "/>
</g>
<g id="glyph-1-2">
<path d="M 1.34375 -0.582031 L 3.753906 -0.582031 L 3.753906 0 L 0.511719 0 L 0.511719 -0.582031 C 0.769531 -0.847656 1.128906 -1.210938 1.582031 -1.671875 C 2.03125 -2.128906 2.316406 -2.421875 2.4375 -2.554688 C 2.660156 -2.800781 2.8125 -3.011719 2.898438 -3.183594 C 2.980469 -3.351562 3.03125 -3.527344 3.03125 -3.695312 C 3.03125 -3.960938 2.933594 -4.1875 2.742188 -4.355469 C 2.554688 -4.523438 2.308594 -4.613281 2.003906 -4.613281 C 1.785156 -4.613281 1.554688 -4.570312 1.316406 -4.5 C 1.078125 -4.425781 0.820312 -4.3125 0.546875 -4.15625 L 0.546875 -4.859375 C 0.824219 -4.96875 1.085938 -5.054688 1.324219 -5.109375 C 1.5625 -5.164062 1.785156 -5.195312 1.988281 -5.195312 C 2.511719 -5.195312 2.933594 -5.0625 3.246094 -4.796875 C 3.5625 -4.527344 3.722656 -4.179688 3.722656 -3.738281 C 3.722656 -3.527344 3.683594 -3.324219 3.605469 -3.144531 C 3.527344 -2.953125 3.386719 -2.730469 3.179688 -2.476562 C 3.121094 -2.40625 2.941406 -2.21875 2.632812 -1.902344 C 2.324219 -1.589844 1.898438 -1.148438 1.34375 -0.582031 Z M 1.34375 -0.582031 "/>
</g>
<g id="glyph-1-3">
<path d="M 2.84375 -2.75 C 3.171875 -2.679688 3.429688 -2.535156 3.613281 -2.308594 C 3.792969 -2.085938 3.890625 -1.804688 3.890625 -1.484375 C 3.890625 -0.980469 3.71875 -0.589844 3.375 -0.316406 C 3.023438 -0.0429688 2.535156 0.0898438 1.898438 0.0898438 C 1.679688 0.0898438 1.457031 0.0703125 1.230469 0.0273438 C 1.007812 -0.0078125 0.769531 -0.0703125 0.53125 -0.152344 L 0.53125 -0.820312 C 0.722656 -0.707031 0.929688 -0.621094 1.160156 -0.566406 C 1.386719 -0.511719 1.625 -0.484375 1.875 -0.484375 C 2.308594 -0.484375 2.640625 -0.566406 2.863281 -0.734375 C 3.085938 -0.902344 3.207031 -1.15625 3.207031 -1.484375 C 3.207031 -1.777344 3.101562 -2.015625 2.890625 -2.183594 C 2.679688 -2.351562 2.386719 -2.441406 2.007812 -2.441406 L 1.414062 -2.441406 L 1.414062 -3.011719 L 2.035156 -3.011719 C 2.371094 -3.011719 2.632812 -3.074219 2.8125 -3.214844 C 2.996094 -3.347656 3.085938 -3.542969 3.085938 -3.800781 C 3.085938 -4.058594 2.988281 -4.261719 2.808594 -4.402344 C 2.617188 -4.542969 2.351562 -4.613281 2.007812 -4.613281 C 1.820312 -4.613281 1.617188 -4.59375 1.398438 -4.550781 C 1.183594 -4.507812 0.945312 -4.445312 0.6875 -4.359375 L 0.6875 -4.976562 C 0.945312 -5.046875 1.191406 -5.101562 1.421875 -5.136719 C 1.644531 -5.171875 1.863281 -5.195312 2.070312 -5.195312 C 2.589844 -5.195312 3.003906 -5.074219 3.3125 -4.835938 C 3.617188 -4.597656 3.773438 -4.277344 3.773438 -3.871094 C 3.773438 -3.589844 3.6875 -3.351562 3.527344 -3.15625 C 3.367188 -2.960938 3.136719 -2.820312 2.84375 -2.75 Z M 2.84375 -2.75 "/>
</g>
<g id="glyph-1-4">
<path d="M 2.644531 -4.5 L 0.902344 -1.777344 L 2.644531 -1.777344 Z M 2.464844 -5.101562 L 3.332031 -5.101562 L 3.332031 -1.777344 L 4.058594 -1.777344 L 4.058594 -1.203125 L 3.332031 -1.203125 L 3.332031 0 L 2.644531 0 L 2.644531 -1.203125 L 0.34375 -1.203125 L 0.34375 -1.867188 Z M 2.464844 -5.101562 "/>
</g>
<g id="glyph-1-5">
<path d="M 0.757812 -5.101562 L 3.464844 -5.101562 L 3.464844 -4.523438 L 1.386719 -4.523438 L 1.386719 -3.269531 C 1.484375 -3.304688 1.589844 -3.332031 1.6875 -3.347656 C 1.785156 -3.359375 1.890625 -3.375 1.988281 -3.375 C 2.554688 -3.375 3.003906 -3.214844 3.339844 -2.90625 C 3.675781 -2.589844 3.84375 -2.171875 3.84375 -1.636719 C 3.84375 -1.085938 3.667969 -0.65625 3.324219 -0.355469 C 2.980469 -0.0546875 2.5 0.0898438 1.882812 0.0898438 C 1.664062 0.0898438 1.449219 0.0703125 1.226562 0.0429688 C 1 0.0078125 0.777344 -0.0429688 0.539062 -0.117188 L 0.539062 -0.8125 C 0.742188 -0.699219 0.953125 -0.617188 1.175781 -0.558594 C 1.394531 -0.503906 1.625 -0.484375 1.867188 -0.484375 C 2.261719 -0.484375 2.574219 -0.582031 2.808594 -0.789062 C 3.03125 -1 3.148438 -1.28125 3.148438 -1.636719 C 3.148438 -1.988281 3.03125 -2.269531 2.808594 -2.476562 C 2.574219 -2.6875 2.261719 -2.792969 1.867188 -2.792969 C 1.6875 -2.792969 1.496094 -2.773438 1.316406 -2.730469 C 1.132812 -2.6875 0.945312 -2.625 0.757812 -2.539062 Z M 0.757812 -5.101562 "/>
</g>
<g id="glyph-2-0">
<path d="M -7.289062 -0.980469 L -7.289062 -2.449219 L -2.328125 -4.308594 L -7.289062 -6.179688 L -7.289062 -7.648438 L 0 -7.648438 L 0 -6.691406 L -6.398438 -6.691406 L -1.398438 -4.808594 L -1.398438 -3.820312 L -6.398438 -1.941406 L 0 -1.941406 L 0 -0.980469 Z M -7.289062 -0.980469 "/>
</g>
<g id="glyph-2-1">
<path d="M -7.289062 -0.980469 L -7.289062 -5.171875 L -6.460938 -5.171875 L -6.460938 -1.96875 L -4.308594 -1.96875 L -4.308594 -4.859375 L -3.480469 -4.859375 L -3.480469 -1.96875 L 0 -1.96875 L 0 -0.980469 Z M -7.289062 -0.980469 "/>
</g>
<g id="glyph-2-2">
<path d="M -7.289062 -0.980469 L -7.289062 -1.96875 L -0.828125 -1.96875 L -0.828125 -5.519531 L 0 -5.519531 L 0 -0.980469 Z M -7.289062 -0.980469 "/>
</g>
<g id="glyph-2-3">
<path d="M -6.621094 -3.941406 C -6.621094 -3.21875 -6.351562 -2.648438 -5.820312 -2.230469 C -5.28125 -1.808594 -4.558594 -1.601562 -3.640625 -1.601562 C -2.71875 -1.601562 -1.988281 -1.808594 -1.460938 -2.230469 C -0.921875 -2.648438 -0.660156 -3.21875 -0.660156 -3.941406 C -0.660156 -4.648438 -0.921875 -5.21875 -1.460938 -5.640625 C -1.988281 -6.058594 -2.71875 -6.269531 -3.640625 -6.269531 C -4.558594 -6.269531 -5.28125 -6.058594 -5.820312 -5.640625 C -6.351562 -5.21875 -6.621094 -4.648438 -6.621094 -3.941406 Z M -7.421875 -3.941406 C -7.421875 -4.960938 -7.070312 -5.769531 -6.390625 -6.390625 C -5.710938 -7 -4.789062 -7.308594 -3.640625 -7.308594 C -2.480469 -7.308594 -1.570312 -7 -0.890625 -6.390625 C -0.210938 -5.769531 0.128906 -4.960938 0.128906 -3.941406 C 0.128906 -2.910156 -0.210938 -2.089844 -0.890625 -1.480469 C -1.570312 -0.859375 -2.480469 -0.558594 -3.640625 -0.558594 C -4.789062 -0.558594 -5.710938 -0.859375 -6.390625 -1.480469 C -7.070312 -2.089844 -7.421875 -2.910156 -7.421875 -3.941406 Z M -7.421875 -3.941406 "/>
</g>
<g id="glyph-2-4">
<path d="M -6.480469 -1.96875 L -3.738281 -1.96875 L -3.738281 -3.210938 C -3.738281 -3.671875 -3.851562 -4.019531 -4.089844 -4.269531 C -4.328125 -4.519531 -4.671875 -4.648438 -5.109375 -4.648438 C -5.550781 -4.648438 -5.878906 -4.519531 -6.121094 -4.269531 C -6.359375 -4.019531 -6.480469 -3.671875 -6.480469 -3.210938 Z M -7.289062 -0.980469 L -7.289062 -3.210938 C -7.289062 -4.019531 -7.101562 -4.640625 -6.730469 -5.058594 C -6.359375 -5.480469 -5.820312 -5.691406 -5.109375 -5.691406 C -4.390625 -5.691406 -3.839844 -5.480469 -3.480469 -5.058594 C -3.109375 -4.640625 -2.929688 -4.019531 -2.929688 -3.210938 L -2.929688 -1.96875 L 0 -1.96875 L 0 -0.980469 Z M -7.289062 -0.980469 "/>
</g>
<g id="glyph-2-5">
<path d="M -7.289062 -2.539062 L -7.289062 -3.371094 L 0.921875 -0.828125 L 0.921875 0 Z M -7.289062 -2.539062 "/>
</g>
<g id="glyph-2-6">
<path d="M -7.050781 -5.351562 L -6.089844 -5.351562 C -6.269531 -4.96875 -6.398438 -4.621094 -6.488281 -4.289062 C -6.570312 -3.949219 -6.621094 -3.628906 -6.621094 -3.328125 C -6.621094 -2.789062 -6.511719 -2.371094 -6.308594 -2.078125 C -6.101562 -1.789062 -5.800781 -1.648438 -5.421875 -1.648438 C -5.101562 -1.648438 -4.851562 -1.738281 -4.691406 -1.941406 C -4.519531 -2.128906 -4.390625 -2.5 -4.289062 -3.039062 L -4.171875 -3.640625 C -4.03125 -4.371094 -3.78125 -4.910156 -3.429688 -5.261719 C -3.070312 -5.609375 -2.601562 -5.789062 -2.011719 -5.789062 C -1.300781 -5.789062 -0.769531 -5.550781 -0.410156 -5.078125 C -0.0507812 -4.601562 0.128906 -3.910156 0.128906 -3 C 0.128906 -2.648438 0.0898438 -2.28125 0.0195312 -1.890625 C -0.0507812 -1.5 -0.160156 -1.101562 -0.320312 -0.691406 L -1.339844 -0.691406 C -1.109375 -1.089844 -0.941406 -1.480469 -0.828125 -1.859375 C -0.710938 -2.238281 -0.660156 -2.621094 -0.660156 -3 C -0.660156 -3.558594 -0.769531 -3.988281 -0.988281 -4.300781 C -1.210938 -4.601562 -1.519531 -4.761719 -1.941406 -4.761719 C -2.300781 -4.761719 -2.578125 -4.648438 -2.78125 -4.429688 C -2.980469 -4.210938 -3.128906 -3.851562 -3.230469 -3.351562 L -3.351562 -2.75 C -3.488281 -2.011719 -3.71875 -1.480469 -4.039062 -1.148438 C -4.351562 -0.820312 -4.78125 -0.660156 -5.339844 -0.660156 C -5.980469 -0.660156 -6.488281 -0.878906 -6.859375 -1.339844 C -7.230469 -1.789062 -7.421875 -2.421875 -7.421875 -3.21875 C -7.421875 -3.558594 -7.390625 -3.898438 -7.328125 -4.261719 C -7.269531 -4.609375 -7.171875 -4.96875 -7.050781 -5.351562 Z M -7.050781 -5.351562 "/>
</g>
</g>
<clipPath id="clip-0">
<path clip-rule="nonzero" d="M 0 0 L 485.070312 0 L 485.070312 201.953125 L 0 201.953125 Z M 0 0 "/>
</clipPath>
<clipPath id="clip-1">
<path clip-rule="nonzero" d="M 38 3 L 485.070312 3 L 485.070312 171 L 38 171 Z M 38 3 "/>
</clipPath>
<clipPath id="clip-2">
<path clip-rule="nonzero" d="M 233 192 L 297 192 L 297 201.953125 L 233 201.953125 Z M 233 192 "/>
</clipPath>
<clipPath id="clip-3">
<path clip-rule="nonzero" d="M 187 3.960938 L 189 3.960938 L 189 170.28125 L 187 170.28125 Z M 187 3.960938 "/>
</clipPath>
<clipPath id="clip-4">
<path clip-rule="nonzero" d="M 289 3.960938 L 291 3.960938 L 291 170.28125 L 289 170.28125 Z M 289 3.960938 "/>
</clipPath>
<clipPath id="clip-5">
<path clip-rule="nonzero" d="M 376 3.960938 L 378 3.960938 L 378 170.28125 L 376 170.28125 Z M 376 3.960938 "/>
</clipPath>
<clipPath id="clip-6">
<path clip-rule="nonzero" d="M 484 3 L 485.070312 3 L 485.070312 171 L 484 171 Z M 484 3 "/>
</clipPath>
<clipPath id="clip-7">
<path clip-rule="nonzero" d="M 38 169 L 485.070312 169 L 485.070312 171 L 38 171 Z M 38 169 "/>
</clipPath>
<clipPath id="clip-8">
<path clip-rule="nonzero" d="M 38 3 L 485.070312 3 L 485.070312 5 L 38 5 Z M 38 3 "/>
</clipPath>
</defs>
<g clip-path="url(#clip-0)">
<path fill-rule="nonzero" fill="rgb(100%, 100%, 100%)" fill-opacity="1" d="M 0 201.953125 L 485.070312 201.953125 L 485.070312 0 L 0 0 Z M 0 201.953125 "/>
</g>
<g clip-path="url(#clip-1)">
<path fill-rule="nonzero" fill="rgb(100%, 100%, 100%)" fill-opacity="1" d="M 38.671875 170.28125 L 485.070312 170.28125 L 485.070312 3.960938 L 38.671875 3.960938 Z M 38.671875 170.28125 "/>
</g>
<path fill="none" stroke-width="0.8" stroke-linecap="butt" stroke-linejoin="round" stroke="rgb(0%, 0%, 0%)" stroke-opacity="1" stroke-miterlimit="10" d="M 86.574219 31.671563 L 86.574219 28.171563 " transform="matrix(1, 0, 0, -1, 0, 201.952813)"/>
<g fill="rgb(0%, 0%, 0%)" fill-opacity="1">
<use xlink:href="#glyph-0-0" x="77.574651" y="185.22625"/>
</g>
<g fill="rgb(0%, 0%, 0%)" fill-opacity="1">
<use xlink:href="#glyph-0-1" x="83.936956" y="185.22625"/>
</g>
<g fill="rgb(0%, 0%, 0%)" fill-opacity="1">
<use xlink:href="#glyph-1-0" x="90.394963" y="181.398125"/>
</g>
<path fill="none" stroke-width="0.8" stroke-linecap="butt" stroke-linejoin="round" stroke="rgb(0%, 0%, 0%)" stroke-opacity="1" stroke-miterlimit="10" d="M 154.210938 31.671563 L 154.210938 28.171563 " transform="matrix(1, 0, 0, -1, 0, 201.952813)"/>
<g fill="rgb(0%, 0%, 0%)" fill-opacity="1">
<use xlink:href="#glyph-0-0" x="145.211014" y="185.13875"/>
</g>
<g fill="rgb(0%, 0%, 0%)" fill-opacity="1">
<use xlink:href="#glyph-0-1" x="151.573319" y="185.13875"/>
</g>
<g fill="rgb(0%, 0%, 0%)" fill-opacity="1">
<use xlink:href="#glyph-1-1" x="158.031327" y="181.310625"/>
</g>
<path fill="none" stroke-width="0.8" stroke-linecap="butt" stroke-linejoin="round" stroke="rgb(0%, 0%, 0%)" stroke-opacity="1" stroke-miterlimit="10" d="M 221.847656 31.671563 L 221.847656 28.171563 " transform="matrix(1, 0, 0, -1, 0, 201.952813)"/>
<g fill="rgb(0%, 0%, 0%)" fill-opacity="1">
<use xlink:href="#glyph-0-0" x="212.847378" y="185.22625"/>
</g>
<g fill="rgb(0%, 0%, 0%)" fill-opacity="1">
<use xlink:href="#glyph-0-1" x="219.209683" y="185.22625"/>
</g>
<g fill="rgb(0%, 0%, 0%)" fill-opacity="1">
<use xlink:href="#glyph-1-2" x="225.667691" y="181.398125"/>
</g>
<path fill="none" stroke-width="0.8" stroke-linecap="butt" stroke-linejoin="round" stroke="rgb(0%, 0%, 0%)" stroke-opacity="1" stroke-miterlimit="10" d="M 289.484375 31.671563 L 289.484375 28.171563 " transform="matrix(1, 0, 0, -1, 0, 201.952813)"/>
<g fill="rgb(0%, 0%, 0%)" fill-opacity="1">
<use xlink:href="#glyph-0-0" x="280.483742" y="185.22625"/>
</g>
<g fill="rgb(0%, 0%, 0%)" fill-opacity="1">
<use xlink:href="#glyph-0-1" x="286.846046" y="185.22625"/>
</g>
<g fill="rgb(0%, 0%, 0%)" fill-opacity="1">
<use xlink:href="#glyph-1-3" x="293.304054" y="181.398125"/>
</g>
<path fill="none" stroke-width="0.8" stroke-linecap="butt" stroke-linejoin="round" stroke="rgb(0%, 0%, 0%)" stroke-opacity="1" stroke-miterlimit="10" d="M 357.121094 31.671563 L 357.121094 28.171563 " transform="matrix(1, 0, 0, -1, 0, 201.952813)"/>
<g fill="rgb(0%, 0%, 0%)" fill-opacity="1">
<use xlink:href="#glyph-0-0" x="348.120105" y="185.13875"/>
</g>
<g fill="rgb(0%, 0%, 0%)" fill-opacity="1">
<use xlink:href="#glyph-0-1" x="354.48241" y="185.13875"/>
</g>
<g fill="rgb(0%, 0%, 0%)" fill-opacity="1">
<use xlink:href="#glyph-1-4" x="360.940418" y="181.310625"/>
</g>
<path fill="none" stroke-width="0.8" stroke-linecap="butt" stroke-linejoin="round" stroke="rgb(0%, 0%, 0%)" stroke-opacity="1" stroke-miterlimit="10" d="M 424.757812 31.671563 L 424.757812 28.171563 " transform="matrix(1, 0, 0, -1, 0, 201.952813)"/>
<g fill="rgb(0%, 0%, 0%)" fill-opacity="1">
<use xlink:href="#glyph-0-0" x="415.756469" y="185.13875"/>
</g>
<g fill="rgb(0%, 0%, 0%)" fill-opacity="1">
<use xlink:href="#glyph-0-1" x="422.118774" y="185.13875"/>
</g>
<g fill="rgb(0%, 0%, 0%)" fill-opacity="1">
<use xlink:href="#glyph-1-5" x="428.576782" y="181.310625"/>
</g>
<path fill="none" stroke-width="0.6" stroke-linecap="butt" stroke-linejoin="round" stroke="rgb(0%, 0%, 0%)" stroke-opacity="1" stroke-miterlimit="10" d="M 39.300781 31.671563 L 39.300781 29.671563 " transform="matrix(1, 0, 0, -1, 0, 201.952813)"/>
<path fill="none" stroke-width="0.6" stroke-linecap="butt" stroke-linejoin="round" stroke="rgb(0%, 0%, 0%)" stroke-opacity="1" stroke-miterlimit="10" d="M 51.210938 31.671563 L 51.210938 29.671563 " transform="matrix(1, 0, 0, -1, 0, 201.952813)"/>
<path fill="none" stroke-width="0.6" stroke-linecap="butt" stroke-linejoin="round" stroke="rgb(0%, 0%, 0%)" stroke-opacity="1" stroke-miterlimit="10" d="M 59.660156 31.671563 L 59.660156 29.671563 " transform="matrix(1, 0, 0, -1, 0, 201.952813)"/>
<path fill="none" stroke-width="0.6" stroke-linecap="butt" stroke-linejoin="round" stroke="rgb(0%, 0%, 0%)" stroke-opacity="1" stroke-miterlimit="10" d="M 66.214844 31.671563 L 66.214844 29.671563 " transform="matrix(1, 0, 0, -1, 0, 201.952813)"/>
<path fill="none" stroke-width="0.6" stroke-linecap="butt" stroke-linejoin="round" stroke="rgb(0%, 0%, 0%)" stroke-opacity="1" stroke-miterlimit="10" d="M 71.570312 31.671563 L 71.570312 29.671563 " transform="matrix(1, 0, 0, -1, 0, 201.952813)"/>
<path fill="none" stroke-width="0.6" stroke-linecap="butt" stroke-linejoin="round" stroke="rgb(0%, 0%, 0%)" stroke-opacity="1" stroke-miterlimit="10" d="M 76.097656 31.671563 L 76.097656 29.671563 " transform="matrix(1, 0, 0, -1, 0, 201.952813)"/>
<path fill="none" stroke-width="0.6" stroke-linecap="butt" stroke-linejoin="round" stroke="rgb(0%, 0%, 0%)" stroke-opacity="1" stroke-miterlimit="10" d="M 80.019531 31.671563 L 80.019531 29.671563 " transform="matrix(1, 0, 0, -1, 0, 201.952813)"/>
<path fill="none" stroke-width="0.6" stroke-linecap="butt" stroke-linejoin="round" stroke="rgb(0%, 0%, 0%)" stroke-opacity="1" stroke-miterlimit="10" d="M 83.480469 31.671563 L 83.480469 29.671563 " transform="matrix(1, 0, 0, -1, 0, 201.952813)"/>
<path fill="none" stroke-width="0.6" stroke-linecap="butt" stroke-linejoin="round" stroke="rgb(0%, 0%, 0%)" stroke-opacity="1" stroke-miterlimit="10" d="M 106.933594 31.671563 L 106.933594 29.671563 " transform="matrix(1, 0, 0, -1, 0, 201.952813)"/>
<path fill="none" stroke-width="0.6" stroke-linecap="butt" stroke-linejoin="round" stroke="rgb(0%, 0%, 0%)" stroke-opacity="1" stroke-miterlimit="10" d="M 118.84375 31.671563 L 118.84375 29.671563 " transform="matrix(1, 0, 0, -1, 0, 201.952813)"/>
<path fill="none" stroke-width="0.6" stroke-linecap="butt" stroke-linejoin="round" stroke="rgb(0%, 0%, 0%)" stroke-opacity="1" stroke-miterlimit="10" d="M 127.296875 31.671563 L 127.296875 29.671563 " transform="matrix(1, 0, 0, -1, 0, 201.952813)"/>
<path fill="none" stroke-width="0.6" stroke-linecap="butt" stroke-linejoin="round" stroke="rgb(0%, 0%, 0%)" stroke-opacity="1" stroke-miterlimit="10" d="M 133.851562 31.671563 L 133.851562 29.671563 " transform="matrix(1, 0, 0, -1, 0, 201.952813)"/>
<path fill="none" stroke-width="0.6" stroke-linecap="butt" stroke-linejoin="round" stroke="rgb(0%, 0%, 0%)" stroke-opacity="1" stroke-miterlimit="10" d="M 139.207031 31.671563 L 139.207031 29.671563 " transform="matrix(1, 0, 0, -1, 0, 201.952813)"/>
<path fill="none" stroke-width="0.6" stroke-linecap="butt" stroke-linejoin="round" stroke="rgb(0%, 0%, 0%)" stroke-opacity="1" stroke-miterlimit="10" d="M 143.734375 31.671563 L 143.734375 29.671563 " transform="matrix(1, 0, 0, -1, 0, 201.952813)"/>
<path fill="none" stroke-width="0.6" stroke-linecap="butt" stroke-linejoin="round" stroke="rgb(0%, 0%, 0%)" stroke-opacity="1" stroke-miterlimit="10" d="M 147.65625 31.671563 L 147.65625 29.671563 " transform="matrix(1, 0, 0, -1, 0, 201.952813)"/>
<path fill="none" stroke-width="0.6" stroke-linecap="butt" stroke-linejoin="round" stroke="rgb(0%, 0%, 0%)" stroke-opacity="1" stroke-miterlimit="10" d="M 151.117188 31.671563 L 151.117188 29.671563 " transform="matrix(1, 0, 0, -1, 0, 201.952813)"/>
<path fill="none" stroke-width="0.6" stroke-linecap="butt" stroke-linejoin="round" stroke="rgb(0%, 0%, 0%)" stroke-opacity="1" stroke-miterlimit="10" d="M 174.570312 31.671563 L 174.570312 29.671563 " transform="matrix(1, 0, 0, -1, 0, 201.952813)"/>
<path fill="none" stroke-width="0.6" stroke-linecap="butt" stroke-linejoin="round" stroke="rgb(0%, 0%, 0%)" stroke-opacity="1" stroke-miterlimit="10" d="M 186.480469 31.671563 L 186.480469 29.671563 " transform="matrix(1, 0, 0, -1, 0, 201.952813)"/>
<path fill="none" stroke-width="0.6" stroke-linecap="butt" stroke-linejoin="round" stroke="rgb(0%, 0%, 0%)" stroke-opacity="1" stroke-miterlimit="10" d="M 194.933594 31.671563 L 194.933594 29.671563 " transform="matrix(1, 0, 0, -1, 0, 201.952813)"/>
<path fill="none" stroke-width="0.6" stroke-linecap="butt" stroke-linejoin="round" stroke="rgb(0%, 0%, 0%)" stroke-opacity="1" stroke-miterlimit="10" d="M 201.488281 31.671563 L 201.488281 29.671563 " transform="matrix(1, 0, 0, -1, 0, 201.952813)"/>
<path fill="none" stroke-width="0.6" stroke-linecap="butt" stroke-linejoin="round" stroke="rgb(0%, 0%, 0%)" stroke-opacity="1" stroke-miterlimit="10" d="M 206.84375 31.671563 L 206.84375 29.671563 " transform="matrix(1, 0, 0, -1, 0, 201.952813)"/>
<path fill="none" stroke-width="0.6" stroke-linecap="butt" stroke-linejoin="round" stroke="rgb(0%, 0%, 0%)" stroke-opacity="1" stroke-miterlimit="10" d="M 211.371094 31.671563 L 211.371094 29.671563 " transform="matrix(1, 0, 0, -1, 0, 201.952813)"/>
<path fill="none" stroke-width="0.6" stroke-linecap="butt" stroke-linejoin="round" stroke="rgb(0%, 0%, 0%)" stroke-opacity="1" stroke-miterlimit="10" d="M 215.292969 31.671563 L 215.292969 29.671563 " transform="matrix(1, 0, 0, -1, 0, 201.952813)"/>
<path fill="none" stroke-width="0.6" stroke-linecap="butt" stroke-linejoin="round" stroke="rgb(0%, 0%, 0%)" stroke-opacity="1" stroke-miterlimit="10" d="M 218.753906 31.671563 L 218.753906 29.671563 " transform="matrix(1, 0, 0, -1, 0, 201.952813)"/>
<path fill="none" stroke-width="0.6" stroke-linecap="butt" stroke-linejoin="round" stroke="rgb(0%, 0%, 0%)" stroke-opacity="1" stroke-miterlimit="10" d="M 242.207031 31.671563 L 242.207031 29.671563 " transform="matrix(1, 0, 0, -1, 0, 201.952813)"/>
<path fill="none" stroke-width="0.6" stroke-linecap="butt" stroke-linejoin="round" stroke="rgb(0%, 0%, 0%)" stroke-opacity="1" stroke-miterlimit="10" d="M 254.117188 31.671563 L 254.117188 29.671563 " transform="matrix(1, 0, 0, -1, 0, 201.952813)"/>
<path fill="none" stroke-width="0.6" stroke-linecap="butt" stroke-linejoin="round" stroke="rgb(0%, 0%, 0%)" stroke-opacity="1" stroke-miterlimit="10" d="M 262.570312 31.671563 L 262.570312 29.671563 " transform="matrix(1, 0, 0, -1, 0, 201.952813)"/>
<path fill="none" stroke-width="0.6" stroke-linecap="butt" stroke-linejoin="round" stroke="rgb(0%, 0%, 0%)" stroke-opacity="1" stroke-miterlimit="10" d="M 269.125 31.671563 L 269.125 29.671563 " transform="matrix(1, 0, 0, -1, 0, 201.952813)"/>
<path fill="none" stroke-width="0.6" stroke-linecap="butt" stroke-linejoin="round" stroke="rgb(0%, 0%, 0%)" stroke-opacity="1" stroke-miterlimit="10" d="M 274.480469 31.671563 L 274.480469 29.671563 " transform="matrix(1, 0, 0, -1, 0, 201.952813)"/>
<path fill="none" stroke-width="0.6" stroke-linecap="butt" stroke-linejoin="round" stroke="rgb(0%, 0%, 0%)" stroke-opacity="1" stroke-miterlimit="10" d="M 279.007812 31.671563 L 279.007812 29.671563 " transform="matrix(1, 0, 0, -1, 0, 201.952813)"/>
<path fill="none" stroke-width="0.6" stroke-linecap="butt" stroke-linejoin="round" stroke="rgb(0%, 0%, 0%)" stroke-opacity="1" stroke-miterlimit="10" d="M 282.929688 31.671563 L 282.929688 29.671563 " transform="matrix(1, 0, 0, -1, 0, 201.952813)"/>
<path fill="none" stroke-width="0.6" stroke-linecap="butt" stroke-linejoin="round" stroke="rgb(0%, 0%, 0%)" stroke-opacity="1" stroke-miterlimit="10" d="M 286.390625 31.671563 L 286.390625 29.671563 " transform="matrix(1, 0, 0, -1, 0, 201.952813)"/>
<path fill="none" stroke-width="0.6" stroke-linecap="butt" stroke-linejoin="round" stroke="rgb(0%, 0%, 0%)" stroke-opacity="1" stroke-miterlimit="10" d="M 309.84375 31.671563 L 309.84375 29.671563 " transform="matrix(1, 0, 0, -1, 0, 201.952813)"/>
<path fill="none" stroke-width="0.6" stroke-linecap="butt" stroke-linejoin="round" stroke="rgb(0%, 0%, 0%)" stroke-opacity="1" stroke-miterlimit="10" d="M 321.753906 31.671563 L 321.753906 29.671563 " transform="matrix(1, 0, 0, -1, 0, 201.952813)"/>
<path fill="none" stroke-width="0.6" stroke-linecap="butt" stroke-linejoin="round" stroke="rgb(0%, 0%, 0%)" stroke-opacity="1" stroke-miterlimit="10" d="M 330.203125 31.671563 L 330.203125 29.671563 " transform="matrix(1, 0, 0, -1, 0, 201.952813)"/>
<path fill="none" stroke-width="0.6" stroke-linecap="butt" stroke-linejoin="round" stroke="rgb(0%, 0%, 0%)" stroke-opacity="1" stroke-miterlimit="10" d="M 336.757812 31.671563 L 336.757812 29.671563 " transform="matrix(1, 0, 0, -1, 0, 201.952813)"/>
<path fill="none" stroke-width="0.6" stroke-linecap="butt" stroke-linejoin="round" stroke="rgb(0%, 0%, 0%)" stroke-opacity="1" stroke-miterlimit="10" d="M 342.113281 31.671563 L 342.113281 29.671563 " transform="matrix(1, 0, 0, -1, 0, 201.952813)"/>
<path fill="none" stroke-width="0.6" stroke-linecap="butt" stroke-linejoin="round" stroke="rgb(0%, 0%, 0%)" stroke-opacity="1" stroke-miterlimit="10" d="M 346.644531 31.671563 L 346.644531 29.671563 " transform="matrix(1, 0, 0, -1, 0, 201.952813)"/>
<path fill="none" stroke-width="0.6" stroke-linecap="butt" stroke-linejoin="round" stroke="rgb(0%, 0%, 0%)" stroke-opacity="1" stroke-miterlimit="10" d="M 350.566406 31.671563 L 350.566406 29.671563 " transform="matrix(1, 0, 0, -1, 0, 201.952813)"/>
<path fill="none" stroke-width="0.6" stroke-linecap="butt" stroke-linejoin="round" stroke="rgb(0%, 0%, 0%)" stroke-opacity="1" stroke-miterlimit="10" d="M 354.023438 31.671563 L 354.023438 29.671563 " transform="matrix(1, 0, 0, -1, 0, 201.952813)"/>
<path fill="none" stroke-width="0.6" stroke-linecap="butt" stroke-linejoin="round" stroke="rgb(0%, 0%, 0%)" stroke-opacity="1" stroke-miterlimit="10" d="M 377.480469 31.671563 L 377.480469 29.671563 " transform="matrix(1, 0, 0, -1, 0, 201.952813)"/>
<path fill="none" stroke-width="0.6" stroke-linecap="butt" stroke-linejoin="round" stroke="rgb(0%, 0%, 0%)" stroke-opacity="1" stroke-miterlimit="10" d="M 389.390625 31.671563 L 389.390625 29.671563 " transform="matrix(1, 0, 0, -1, 0, 201.952813)"/>
<path fill="none" stroke-width="0.6" stroke-linecap="butt" stroke-linejoin="round" stroke="rgb(0%, 0%, 0%)" stroke-opacity="1" stroke-miterlimit="10" d="M 397.839844 31.671563 L 397.839844 29.671563 " transform="matrix(1, 0, 0, -1, 0, 201.952813)"/>
<path fill="none" stroke-width="0.6" stroke-linecap="butt" stroke-linejoin="round" stroke="rgb(0%, 0%, 0%)" stroke-opacity="1" stroke-miterlimit="10" d="M 404.394531 31.671563 L 404.394531 29.671563 " transform="matrix(1, 0, 0, -1, 0, 201.952813)"/>
<path fill="none" stroke-width="0.6" stroke-linecap="butt" stroke-linejoin="round" stroke="rgb(0%, 0%, 0%)" stroke-opacity="1" stroke-miterlimit="10" d="M 409.75 31.671563 L 409.75 29.671563 " transform="matrix(1, 0, 0, -1, 0, 201.952813)"/>
<path fill="none" stroke-width="0.6" stroke-linecap="butt" stroke-linejoin="round" stroke="rgb(0%, 0%, 0%)" stroke-opacity="1" stroke-miterlimit="10" d="M 414.28125 31.671563 L 414.28125 29.671563 " transform="matrix(1, 0, 0, -1, 0, 201.952813)"/>
<path fill="none" stroke-width="0.6" stroke-linecap="butt" stroke-linejoin="round" stroke="rgb(0%, 0%, 0%)" stroke-opacity="1" stroke-miterlimit="10" d="M 418.203125 31.671563 L 418.203125 29.671563 " transform="matrix(1, 0, 0, -1, 0, 201.952813)"/>
<path fill="none" stroke-width="0.6" stroke-linecap="butt" stroke-linejoin="round" stroke="rgb(0%, 0%, 0%)" stroke-opacity="1" stroke-miterlimit="10" d="M 421.660156 31.671563 L 421.660156 29.671563 " transform="matrix(1, 0, 0, -1, 0, 201.952813)"/>
<path fill="none" stroke-width="0.6" stroke-linecap="butt" stroke-linejoin="round" stroke="rgb(0%, 0%, 0%)" stroke-opacity="1" stroke-miterlimit="10" d="M 445.117188 31.671563 L 445.117188 29.671563 " transform="matrix(1, 0, 0, -1, 0, 201.952813)"/>
<path fill="none" stroke-width="0.6" stroke-linecap="butt" stroke-linejoin="round" stroke="rgb(0%, 0%, 0%)" stroke-opacity="1" stroke-miterlimit="10" d="M 457.027344 31.671563 L 457.027344 29.671563 " transform="matrix(1, 0, 0, -1, 0, 201.952813)"/>
<path fill="none" stroke-width="0.6" stroke-linecap="butt" stroke-linejoin="round" stroke="rgb(0%, 0%, 0%)" stroke-opacity="1" stroke-miterlimit="10" d="M 465.476562 31.671563 L 465.476562 29.671563 " transform="matrix(1, 0, 0, -1, 0, 201.952813)"/>
<path fill="none" stroke-width="0.6" stroke-linecap="butt" stroke-linejoin="round" stroke="rgb(0%, 0%, 0%)" stroke-opacity="1" stroke-miterlimit="10" d="M 472.03125 31.671563 L 472.03125 29.671563 " transform="matrix(1, 0, 0, -1, 0, 201.952813)"/>
<path fill="none" stroke-width="0.6" stroke-linecap="butt" stroke-linejoin="round" stroke="rgb(0%, 0%, 0%)" stroke-opacity="1" stroke-miterlimit="10" d="M 477.386719 31.671563 L 477.386719 29.671563 " transform="matrix(1, 0, 0, -1, 0, 201.952813)"/>
<path fill="none" stroke-width="0.6" stroke-linecap="butt" stroke-linejoin="round" stroke="rgb(0%, 0%, 0%)" stroke-opacity="1" stroke-miterlimit="10" d="M 481.914062 31.671563 L 481.914062 29.671563 " transform="matrix(1, 0, 0, -1, 0, 201.952813)"/>
<g fill="rgb(0%, 0%, 0%)" fill-opacity="1">
<use xlink:href="#glyph-0-2" x="226.590625" y="199.874688"/>
</g>
<g clip-path="url(#clip-2)">
<g fill="rgb(0%, 0%, 0%)" fill-opacity="1">
<use xlink:href="#glyph-0-3" x="233.103125" y="199.874688"/>
<use xlink:href="#glyph-0-4" x="239.223125" y="199.874688"/>
<use xlink:href="#glyph-0-5" x="247.403125" y="199.874688"/>
<use xlink:href="#glyph-0-6" x="250.583125" y="199.874688"/>
<use xlink:href="#glyph-0-7" x="255.793125" y="199.874688"/>
<use xlink:href="#glyph-0-8" x="258.573125" y="199.874688"/>
<use xlink:href="#glyph-0-9" x="263.823125" y="199.874688"/>
<use xlink:href="#glyph-0-5" x="269.973125" y="199.874688"/>
<use xlink:href="#glyph-0-10" x="273.153125" y="199.874688"/>
<use xlink:href="#glyph-0-11" x="277.053125" y="199.874688"/>
<use xlink:href="#glyph-0-7" x="283.613125" y="199.874688"/>
<use xlink:href="#glyph-0-12" x="286.393125" y="199.874688"/>
<use xlink:href="#glyph-0-13" x="293.253125" y="199.874688"/>
</g>
</g>
<path fill="none" stroke-width="0.8" stroke-linecap="butt" stroke-linejoin="round" stroke="rgb(0%, 0%, 0%)" stroke-opacity="1" stroke-miterlimit="10" d="M 38.671875 74.745781 L 35.171875 74.745781 " transform="matrix(1, 0, 0, -1, 0, 201.952813)"/>
<g fill="rgb(0%, 0%, 0%)" fill-opacity="1">
<use xlink:href="#glyph-0-0" x="13.671875" y="130.692329"/>
</g>
<g fill="rgb(0%, 0%, 0%)" fill-opacity="1">
<use xlink:href="#glyph-0-1" x="20.03418" y="130.692329"/>
</g>
<g fill="rgb(0%, 0%, 0%)" fill-opacity="1">
<use xlink:href="#glyph-1-2" x="26.492188" y="126.864204"/>
</g>
<path fill="none" stroke-width="0.8" stroke-linecap="butt" stroke-linejoin="round" stroke="rgb(0%, 0%, 0%)" stroke-opacity="1" stroke-miterlimit="10" d="M 38.671875 136.366875 L 35.171875 136.366875 " transform="matrix(1, 0, 0, -1, 0, 201.952813)"/>
<g fill="rgb(0%, 0%, 0%)" fill-opacity="1">
<use xlink:href="#glyph-0-0" x="13.671875" y="69.068821"/>
</g>
<g fill="rgb(0%, 0%, 0%)" fill-opacity="1">
<use xlink:href="#glyph-0-1" x="20.03418" y="69.068821"/>
</g>
<g fill="rgb(0%, 0%, 0%)" fill-opacity="1">
<use xlink:href="#glyph-1-3" x="26.492188" y="65.240696"/>
</g>
<path fill="none" stroke-width="0.8" stroke-linecap="butt" stroke-linejoin="round" stroke="rgb(0%, 0%, 0%)" stroke-opacity="1" stroke-miterlimit="10" d="M 38.671875 197.991875 L 35.171875 197.991875 " transform="matrix(1, 0, 0, -1, 0, 201.952813)"/>
<g fill="rgb(0%, 0%, 0%)" fill-opacity="1">
<use xlink:href="#glyph-0-0" x="13.671875" y="7.857812"/>
</g>
<g fill="rgb(0%, 0%, 0%)" fill-opacity="1">
<use xlink:href="#glyph-0-1" x="20.03418" y="7.857812"/>
</g>
<g fill="rgb(0%, 0%, 0%)" fill-opacity="1">
<use xlink:href="#glyph-1-4" x="26.492188" y="4.029687"/>
</g>
<path fill="none" stroke-width="0.6" stroke-linecap="butt" stroke-linejoin="round" stroke="rgb(0%, 0%, 0%)" stroke-opacity="1" stroke-miterlimit="10" d="M 38.671875 31.671563 L 36.671875 31.671563 " transform="matrix(1, 0, 0, -1, 0, 201.952813)"/>
<path fill="none" stroke-width="0.6" stroke-linecap="butt" stroke-linejoin="round" stroke="rgb(0%, 0%, 0%)" stroke-opacity="1" stroke-miterlimit="10" d="M 38.671875 42.523125 L 36.671875 42.523125 " transform="matrix(1, 0, 0, -1, 0, 201.952813)"/>
<path fill="none" stroke-width="0.6" stroke-linecap="butt" stroke-linejoin="round" stroke="rgb(0%, 0%, 0%)" stroke-opacity="1" stroke-miterlimit="10" d="M 38.671875 50.222344 L 36.671875 50.222344 " transform="matrix(1, 0, 0, -1, 0, 201.952813)"/>
<path fill="none" stroke-width="0.6" stroke-linecap="butt" stroke-linejoin="round" stroke="rgb(0%, 0%, 0%)" stroke-opacity="1" stroke-miterlimit="10" d="M 38.671875 56.195 L 36.671875 56.195 " transform="matrix(1, 0, 0, -1, 0, 201.952813)"/>
<path fill="none" stroke-width="0.6" stroke-linecap="butt" stroke-linejoin="round" stroke="rgb(0%, 0%, 0%)" stroke-opacity="1" stroke-miterlimit="10" d="M 38.671875 61.073906 L 36.671875 61.073906 " transform="matrix(1, 0, 0, -1, 0, 201.952813)"/>
<path fill="none" stroke-width="0.6" stroke-linecap="butt" stroke-linejoin="round" stroke="rgb(0%, 0%, 0%)" stroke-opacity="1" stroke-miterlimit="10" d="M 38.671875 65.198906 L 36.671875 65.198906 " transform="matrix(1, 0, 0, -1, 0, 201.952813)"/>
<path fill="none" stroke-width="0.6" stroke-linecap="butt" stroke-linejoin="round" stroke="rgb(0%, 0%, 0%)" stroke-opacity="1" stroke-miterlimit="10" d="M 38.671875 68.773125 L 36.671875 68.773125 " transform="matrix(1, 0, 0, -1, 0, 201.952813)"/>
<path fill="none" stroke-width="0.6" stroke-linecap="butt" stroke-linejoin="round" stroke="rgb(0%, 0%, 0%)" stroke-opacity="1" stroke-miterlimit="10" d="M 38.671875 71.925469 L 36.671875 71.925469 " transform="matrix(1, 0, 0, -1, 0, 201.952813)"/>
<path fill="none" stroke-width="0.6" stroke-linecap="butt" stroke-linejoin="round" stroke="rgb(0%, 0%, 0%)" stroke-opacity="1" stroke-miterlimit="10" d="M 38.671875 93.296563 L 36.671875 93.296563 " transform="matrix(1, 0, 0, -1, 0, 201.952813)"/>
<path fill="none" stroke-width="0.6" stroke-linecap="butt" stroke-linejoin="round" stroke="rgb(0%, 0%, 0%)" stroke-opacity="1" stroke-miterlimit="10" d="M 38.671875 104.148125 L 36.671875 104.148125 " transform="matrix(1, 0, 0, -1, 0, 201.952813)"/>
<path fill="none" stroke-width="0.6" stroke-linecap="butt" stroke-linejoin="round" stroke="rgb(0%, 0%, 0%)" stroke-opacity="1" stroke-miterlimit="10" d="M 38.671875 111.847344 L 36.671875 111.847344 " transform="matrix(1, 0, 0, -1, 0, 201.952813)"/>
<path fill="none" stroke-width="0.6" stroke-linecap="butt" stroke-linejoin="round" stroke="rgb(0%, 0%, 0%)" stroke-opacity="1" stroke-miterlimit="10" d="M 38.671875 117.816094 L 36.671875 117.816094 " transform="matrix(1, 0, 0, -1, 0, 201.952813)"/>
<path fill="none" stroke-width="0.6" stroke-linecap="butt" stroke-linejoin="round" stroke="rgb(0%, 0%, 0%)" stroke-opacity="1" stroke-miterlimit="10" d="M 38.671875 122.698906 L 36.671875 122.698906 " transform="matrix(1, 0, 0, -1, 0, 201.952813)"/>
<path fill="none" stroke-width="0.6" stroke-linecap="butt" stroke-linejoin="round" stroke="rgb(0%, 0%, 0%)" stroke-opacity="1" stroke-miterlimit="10" d="M 38.671875 126.823906 L 36.671875 126.823906 " transform="matrix(1, 0, 0, -1, 0, 201.952813)"/>
<path fill="none" stroke-width="0.6" stroke-linecap="butt" stroke-linejoin="round" stroke="rgb(0%, 0%, 0%)" stroke-opacity="1" stroke-miterlimit="10" d="M 38.671875 130.398125 L 36.671875 130.398125 " transform="matrix(1, 0, 0, -1, 0, 201.952813)"/>
<path fill="none" stroke-width="0.6" stroke-linecap="butt" stroke-linejoin="round" stroke="rgb(0%, 0%, 0%)" stroke-opacity="1" stroke-miterlimit="10" d="M 38.671875 133.550469 L 36.671875 133.550469 " transform="matrix(1, 0, 0, -1, 0, 201.952813)"/>
<path fill="none" stroke-width="0.6" stroke-linecap="butt" stroke-linejoin="round" stroke="rgb(0%, 0%, 0%)" stroke-opacity="1" stroke-miterlimit="10" d="M 38.671875 154.917656 L 36.671875 154.917656 " transform="matrix(1, 0, 0, -1, 0, 201.952813)"/>
<path fill="none" stroke-width="0.6" stroke-linecap="butt" stroke-linejoin="round" stroke="rgb(0%, 0%, 0%)" stroke-opacity="1" stroke-miterlimit="10" d="M 38.671875 165.769219 L 36.671875 165.769219 " transform="matrix(1, 0, 0, -1, 0, 201.952813)"/>
<path fill="none" stroke-width="0.6" stroke-linecap="butt" stroke-linejoin="round" stroke="rgb(0%, 0%, 0%)" stroke-opacity="1" stroke-miterlimit="10" d="M 38.671875 173.468438 L 36.671875 173.468438 " transform="matrix(1, 0, 0, -1, 0, 201.952813)"/>
<path fill="none" stroke-width="0.6" stroke-linecap="butt" stroke-linejoin="round" stroke="rgb(0%, 0%, 0%)" stroke-opacity="1" stroke-miterlimit="10" d="M 38.671875 179.441094 L 36.671875 179.441094 " transform="matrix(1, 0, 0, -1, 0, 201.952813)"/>
<path fill="none" stroke-width="0.6" stroke-linecap="butt" stroke-linejoin="round" stroke="rgb(0%, 0%, 0%)" stroke-opacity="1" stroke-miterlimit="10" d="M 38.671875 184.32 L 36.671875 184.32 " transform="matrix(1, 0, 0, -1, 0, 201.952813)"/>
<path fill="none" stroke-width="0.6" stroke-linecap="butt" stroke-linejoin="round" stroke="rgb(0%, 0%, 0%)" stroke-opacity="1" stroke-miterlimit="10" d="M 38.671875 188.445 L 36.671875 188.445 " transform="matrix(1, 0, 0, -1, 0, 201.952813)"/>
<path fill="none" stroke-width="0.6" stroke-linecap="butt" stroke-linejoin="round" stroke="rgb(0%, 0%, 0%)" stroke-opacity="1" stroke-miterlimit="10" d="M 38.671875 192.019219 L 36.671875 192.019219 " transform="matrix(1, 0, 0, -1, 0, 201.952813)"/>
<path fill="none" stroke-width="0.6" stroke-linecap="butt" stroke-linejoin="round" stroke="rgb(0%, 0%, 0%)" stroke-opacity="1" stroke-miterlimit="10" d="M 38.671875 195.171563 L 36.671875 195.171563 " transform="matrix(1, 0, 0, -1, 0, 201.952813)"/>
<g fill="rgb(0%, 0%, 0%)" fill-opacity="1">
<use xlink:href="#glyph-2-0" x="7.59375" y="108.7225"/>
<use xlink:href="#glyph-2-1" x="7.59375" y="100.0925"/>
<use xlink:href="#glyph-2-2" x="7.59375" y="94.3425"/>
</g>
<g fill="rgb(0%, 0%, 0%)" fill-opacity="1">
<use xlink:href="#glyph-2-3" x="7.59375" y="89.11625"/>
<use xlink:href="#glyph-2-4" x="7.59375" y="81.24625"/>
<use xlink:href="#glyph-2-5" x="7.59375" y="75.21625"/>
<use xlink:href="#glyph-2-6" x="7.59375" y="71.84625"/>
</g>
<path fill="none" stroke-width="1.5" stroke-linecap="square" stroke-linejoin="round" stroke="rgb(12.156677%, 46.665955%, 70.587158%)" stroke-opacity="1" stroke-miterlimit="10" d="M 58.960938 54.359063 L 73.132812 69.47625 L 87.03125 81.460625 L 100.976562 94.093438 L 114.964844 104.640313 L 128.941406 115.425469 L 142.9375 127.741875 L 156.925781 138.628594 L 170.917969 148.460625 L 184.90625 159.280938 L 198.902344 164.734063 L 212.894531 174.823906 L 226.886719 180.027031 L 240.882812 180.144219 L 254.875 185.870781 L 268.867188 175.870781 L 282.863281 161.527031 L 296.855469 162.155938 L 310.851562 162.671563 L 324.84375 163.511406 L 338.835938 162.191094 L 352.832031 158.562188 L 366.824219 151.859063 L 380.820312 149.702813 L 394.8125 133.648125 L 408.804688 132.011406 L 422.800781 131.683281 L 436.792969 132.16375 L 450.789062 131.714531 L 464.78125 131.839531 " transform="matrix(1, 0, 0, -1, 0, 201.952813)"/>
<path fill-rule="nonzero" fill="rgb(12.156677%, 46.665955%, 70.587158%)" fill-opacity="1" stroke-width="1" stroke-linecap="butt" stroke-linejoin="round" stroke="rgb(12.156677%, 46.665955%, 70.587158%)" stroke-opacity="1" stroke-miterlimit="10" d="M -3.001847 -2.998667 L 2.998153 3.001333 M -3.001847 3.001333 L 2.998153 -2.998667 " transform="matrix(1, 0, 0, -1, 58.962784, 147.595083)"/>
<path fill-rule="nonzero" fill="rgb(12.156677%, 46.665955%, 70.587158%)" fill-opacity="1" stroke-width="1" stroke-linecap="butt" stroke-linejoin="round" stroke="rgb(12.156677%, 46.665955%, 70.587158%)" stroke-opacity="1" stroke-miterlimit="10" d="M -3.000805 -3.001391 L 2.999195 2.998609 M -3.000805 2.998609 L 2.999195 -3.001391 " transform="matrix(1, 0, 0, -1, 73.133618, 132.475171)"/>
<path fill-rule="nonzero" fill="rgb(12.156677%, 46.665955%, 70.587158%)" fill-opacity="1" stroke-width="1" stroke-linecap="butt" stroke-linejoin="round" stroke="rgb(12.156677%, 46.665955%, 70.587158%)" stroke-opacity="1" stroke-miterlimit="10" d="M -2.998822 -3.00005 L 3.001178 2.99995 M -2.998822 2.99995 L 3.001178 -3.00005 " transform="matrix(1, 0, 0, -1, 87.030072, 120.492137)"/>
<path fill-rule="nonzero" fill="rgb(12.156677%, 46.665955%, 70.587158%)" fill-opacity="1" stroke-width="1" stroke-linecap="butt" stroke-linejoin="round" stroke="rgb(12.156677%, 46.665955%, 70.587158%)" stroke-opacity="1" stroke-miterlimit="10" d="M -3.000326 -3.001162 L 2.999674 2.998838 M -3.000326 2.998838 L 2.999674 -3.001162 " transform="matrix(1, 0, 0, -1, 100.976889, 107.858213)"/>
<path fill-rule="nonzero" fill="rgb(12.156677%, 46.665955%, 70.587158%)" fill-opacity="1" stroke-width="1" stroke-linecap="butt" stroke-linejoin="round" stroke="rgb(12.156677%, 46.665955%, 70.587158%)" stroke-opacity="1" stroke-miterlimit="10" d="M -3.001868 -2.998526 L 2.998132 3.001474 M -3.001868 3.001474 L 2.998132 -2.998526 " transform="matrix(1, 0, 0, -1, 114.966712, 97.313974)"/>
<path fill-rule="nonzero" fill="rgb(12.156677%, 46.665955%, 70.587158%)" fill-opacity="1" stroke-width="1" stroke-linecap="butt" stroke-linejoin="round" stroke="rgb(12.156677%, 46.665955%, 70.587158%)" stroke-opacity="1" stroke-miterlimit="10" d="M -2.999884 -3.000014 L 3.000116 2.999986 M -2.999884 2.999986 L 3.000116 -3.000014 " transform="matrix(1, 0, 0, -1, 128.941291, 86.52733)"/>
<path fill-rule="nonzero" fill="rgb(12.156677%, 46.665955%, 70.587158%)" fill-opacity="1" stroke-width="1" stroke-linecap="butt" stroke-linejoin="round" stroke="rgb(12.156677%, 46.665955%, 70.587158%)" stroke-opacity="1" stroke-miterlimit="10" d="M -2.998973 -3.000862 L 3.001027 2.999138 M -2.998973 2.999138 L 3.001027 -3.000862 " transform="matrix(1, 0, 0, -1, 142.936473, 74.210075)"/>
<path fill-rule="nonzero" fill="rgb(12.156677%, 46.665955%, 70.587158%)" fill-opacity="1" stroke-width="1" stroke-linecap="butt" stroke-linejoin="round" stroke="rgb(12.156677%, 46.665955%, 70.587158%)" stroke-opacity="1" stroke-miterlimit="10" d="M -3.001316 -3.000029 L 2.998684 2.999971 M -3.001316 2.999971 L 2.998684 -3.000029 " transform="matrix(1, 0, 0, -1, 156.927097, 63.32419)"/>
<path fill-rule="nonzero" fill="rgb(12.156677%, 46.665955%, 70.587158%)" fill-opacity="1" stroke-width="1" stroke-linecap="butt" stroke-linejoin="round" stroke="rgb(12.156677%, 46.665955%, 70.587158%)" stroke-opacity="1" stroke-miterlimit="10" d="M -2.998858 -2.998998 L 3.001142 3.001002 M -2.998858 3.001002 L 3.001142 -2.998998 " transform="matrix(1, 0, 0, -1, 170.916827, 53.49319)"/>
<path fill-rule="nonzero" fill="rgb(12.156677%, 46.665955%, 70.587158%)" fill-opacity="1" stroke-width="1" stroke-linecap="butt" stroke-linejoin="round" stroke="rgb(12.156677%, 46.665955%, 70.587158%)" stroke-opacity="1" stroke-miterlimit="10" d="M -3.000294 -3.001921 L 2.999706 2.998079 M -3.000294 2.998079 L 2.999706 -3.001921 " transform="matrix(1, 0, 0, -1, 184.906544, 42.669954)"/>
<path fill-rule="nonzero" fill="rgb(12.156677%, 46.665955%, 70.587158%)" fill-opacity="1" stroke-width="1" stroke-linecap="butt" stroke-linejoin="round" stroke="rgb(12.156677%, 46.665955%, 70.587158%)" stroke-opacity="1" stroke-miterlimit="10" d="M -3.000193 -2.998382 L 2.999807 3.001618 M -3.000193 3.001618 L 2.999807 -2.998382 " transform="matrix(1, 0, 0, -1, 198.902537, 37.220368)"/>
<path fill-rule="nonzero" fill="rgb(12.156677%, 46.665955%, 70.587158%)" fill-opacity="1" stroke-width="1" stroke-linecap="butt" stroke-linejoin="round" stroke="rgb(12.156677%, 46.665955%, 70.587158%)" stroke-opacity="1" stroke-miterlimit="10" d="M -2.999415 -3.000629 L 3.000585 2.999371 M -2.999415 2.999371 L 3.000585 -3.000629 " transform="matrix(1, 0, 0, -1, 212.893946, 27.128278)"/>
<path fill-rule="nonzero" fill="rgb(12.156677%, 46.665955%, 70.587158%)" fill-opacity="1" stroke-width="1" stroke-linecap="butt" stroke-linejoin="round" stroke="rgb(12.156677%, 46.665955%, 70.587158%)" stroke-opacity="1" stroke-miterlimit="10" d="M -3.000875 -2.999534 L 2.999125 3.000466 M -3.000875 3.000466 L 2.999125 -2.999534 " transform="matrix(1, 0, 0, -1, 226.887594, 21.926247)"/>
<path fill-rule="nonzero" fill="rgb(12.156677%, 46.665955%, 70.587158%)" fill-opacity="1" stroke-width="1" stroke-linecap="butt" stroke-linejoin="round" stroke="rgb(12.156677%, 46.665955%, 70.587158%)" stroke-opacity="1" stroke-miterlimit="10" d="M -2.999062 -3.000458 L 3.000938 2.999542 M -2.999062 2.999542 L 3.000938 -3.000458 " transform="matrix(1, 0, 0, -1, 240.881874, 21.808136)"/>
<path fill-rule="nonzero" fill="rgb(12.156677%, 46.665955%, 70.587158%)" fill-opacity="1" stroke-width="1" stroke-linecap="butt" stroke-linejoin="round" stroke="rgb(12.156677%, 46.665955%, 70.587158%)" stroke-opacity="1" stroke-miterlimit="10" d="M -3.000148 -3.000819 L 2.999852 2.999181 M -3.000148 2.999181 L 2.999852 -3.000819 " transform="matrix(1, 0, 0, -1, 254.875148, 16.081212)"/>
<path fill-rule="nonzero" fill="rgb(12.156677%, 46.665955%, 70.587158%)" fill-opacity="1" stroke-width="1" stroke-linecap="butt" stroke-linejoin="round" stroke="rgb(12.156677%, 46.665955%, 70.587158%)" stroke-opacity="1" stroke-miterlimit="10" d="M -3.001761 -3.001055 L 2.998239 2.998945 M -3.001761 2.998945 L 2.998239 -3.001055 " transform="matrix(1, 0, 0, -1, 268.868948, 26.080976)"/>
<path fill-rule="nonzero" fill="rgb(12.156677%, 46.665955%, 70.587158%)" fill-opacity="1" stroke-width="1" stroke-linecap="butt" stroke-linejoin="round" stroke="rgb(12.156677%, 46.665955%, 70.587158%)" stroke-opacity="1" stroke-miterlimit="10" d="M -2.999193 -3.000568 L 3.000807 2.999432 M -2.999193 2.999432 L 3.000807 -3.000568 " transform="matrix(1, 0, 0, -1, 282.862475, 40.425214)"/>
<path fill-rule="nonzero" fill="rgb(12.156677%, 46.665955%, 70.587158%)" fill-opacity="1" stroke-width="1" stroke-linecap="butt" stroke-linejoin="round" stroke="rgb(12.156677%, 46.665955%, 70.587158%)" stroke-opacity="1" stroke-miterlimit="10" d="M -3.000781 -2.998124 L 2.999219 3.001876 M -3.000781 3.001876 L 2.999219 -2.998124 " transform="matrix(1, 0, 0, -1, 296.85625, 39.798751)"/>
<path fill-rule="nonzero" fill="rgb(12.156677%, 46.665955%, 70.587158%)" fill-opacity="1" stroke-width="1" stroke-linecap="butt" stroke-linejoin="round" stroke="rgb(12.156677%, 46.665955%, 70.587158%)" stroke-opacity="1" stroke-miterlimit="10" d="M -2.998386 -2.998806 L 3.001614 3.001194 M -2.998386 3.001194 L 3.001614 -2.998806 " transform="matrix(1, 0, 0, -1, 310.849949, 39.282444)"/>
<path fill-rule="nonzero" fill="rgb(12.156677%, 46.665955%, 70.587158%)" fill-opacity="1" stroke-width="1" stroke-linecap="butt" stroke-linejoin="round" stroke="rgb(12.156677%, 46.665955%, 70.587158%)" stroke-opacity="1" stroke-miterlimit="10" d="M -2.999917 -3.00096 L 3.000083 2.99904 M -2.999917 2.99904 L 3.000083 -3.00096 " transform="matrix(1, 0, 0, -1, 324.843667, 38.440447)"/>
<path fill-rule="nonzero" fill="rgb(12.156677%, 46.665955%, 70.587158%)" fill-opacity="1" stroke-width="1" stroke-linecap="butt" stroke-linejoin="round" stroke="rgb(12.156677%, 46.665955%, 70.587158%)" stroke-opacity="1" stroke-miterlimit="10" d="M -3.001459 -3.000199 L 2.998541 2.999801 M -3.001459 2.999801 L 2.998541 -3.000199 " transform="matrix(1, 0, 0, -1, 338.837397, 39.76152)"/>
<path fill-rule="nonzero" fill="rgb(12.156677%, 46.665955%, 70.587158%)" fill-opacity="1" stroke-width="1" stroke-linecap="butt" stroke-linejoin="round" stroke="rgb(12.156677%, 46.665955%, 70.587158%)" stroke-opacity="1" stroke-miterlimit="10" d="M -2.999101 -3.001437 L 3.000899 2.998563 M -2.999101 2.998563 L 3.000899 -3.001437 " transform="matrix(1, 0, 0, -1, 352.831132, 43.389188)"/>
<path fill-rule="nonzero" fill="rgb(12.156677%, 46.665955%, 70.587158%)" fill-opacity="1" stroke-width="1" stroke-linecap="butt" stroke-linejoin="round" stroke="rgb(12.156677%, 46.665955%, 70.587158%)" stroke-opacity="1" stroke-miterlimit="10" d="M -3.000635 -2.99838 L 2.999365 3.00162 M -3.000635 3.00162 L 2.999365 -2.99838 " transform="matrix(1, 0, 0, -1, 366.824854, 50.09537)"/>
<path fill-rule="nonzero" fill="rgb(12.156677%, 46.665955%, 70.587158%)" fill-opacity="1" stroke-width="1" stroke-linecap="butt" stroke-linejoin="round" stroke="rgb(12.156677%, 46.665955%, 70.587158%)" stroke-opacity="1" stroke-miterlimit="10" d="M -2.998273 -2.999752 L 3.001727 3.000248 M -2.998273 3.000248 L 3.001727 -2.999752 " transform="matrix(1, 0, 0, -1, 380.818586, 52.250248)"/>
<path fill-rule="nonzero" fill="rgb(12.156677%, 46.665955%, 70.587158%)" fill-opacity="1" stroke-width="1" stroke-linecap="butt" stroke-linejoin="round" stroke="rgb(12.156677%, 46.665955%, 70.587158%)" stroke-opacity="1" stroke-miterlimit="10" d="M -2.999815 -3.000916 L 3.000185 2.999084 M -2.999815 2.999084 L 3.000185 -3.000916 " transform="matrix(1, 0, 0, -1, 394.812315, 68.303771)"/>
<path fill-rule="nonzero" fill="rgb(12.156677%, 46.665955%, 70.587158%)" fill-opacity="1" stroke-width="1" stroke-linecap="butt" stroke-linejoin="round" stroke="rgb(12.156677%, 46.665955%, 70.587158%)" stroke-opacity="1" stroke-miterlimit="10" d="M -3.001359 -2.998936 L 2.998641 3.001064 M -3.001359 3.001064 L 2.998641 -2.998936 " transform="matrix(1, 0, 0, -1, 408.806046, 69.94247)"/>
<path fill-rule="nonzero" fill="rgb(12.156677%, 46.665955%, 70.587158%)" fill-opacity="1" stroke-width="1" stroke-linecap="butt" stroke-linejoin="round" stroke="rgb(12.156677%, 46.665955%, 70.587158%)" stroke-opacity="1" stroke-miterlimit="10" d="M -2.998994 -3.0007 L 3.001006 2.9993 M -2.998994 2.9993 L 3.001006 -3.0007 " transform="matrix(1, 0, 0, -1, 422.799776, 70.268831)"/>
<path fill-rule="nonzero" fill="rgb(12.156677%, 46.665955%, 70.587158%)" fill-opacity="1" stroke-width="1" stroke-linecap="butt" stroke-linejoin="round" stroke="rgb(12.156677%, 46.665955%, 70.587158%)" stroke-opacity="1" stroke-miterlimit="10" d="M -3.000537 -3.001266 L 2.999463 2.998734 M -3.000537 2.998734 L 2.999463 -3.001266 " transform="matrix(1, 0, 0, -1, 436.793506, 69.787797)"/>
<path fill-rule="nonzero" fill="rgb(12.156677%, 46.665955%, 70.587158%)" fill-opacity="1" stroke-width="1" stroke-linecap="butt" stroke-linejoin="round" stroke="rgb(12.156677%, 46.665955%, 70.587158%)" stroke-opacity="1" stroke-miterlimit="10" d="M -2.998173 -3.00031 L 3.001827 2.99969 M -2.998173 2.99969 L 3.001827 -3.00031 " transform="matrix(1, 0, 0, -1, 450.787236, 70.237971)"/>
<path fill-rule="nonzero" fill="rgb(12.156677%, 46.665955%, 70.587158%)" fill-opacity="1" stroke-width="1" stroke-linecap="butt" stroke-linejoin="round" stroke="rgb(12.156677%, 46.665955%, 70.587158%)" stroke-opacity="1" stroke-miterlimit="10" d="M -2.999716 -2.998565 L 3.000284 3.001435 M -2.999716 3.001435 L 3.000284 -2.998565 " transform="matrix(1, 0, 0, -1, 464.780966, 70.114717)"/>
<g clip-path="url(#clip-3)">
<path fill="none" stroke-width="1" stroke-linecap="butt" stroke-linejoin="round" stroke="rgb(0%, 0%, 0%)" stroke-opacity="1" stroke-dasharray="3.7 1.6" stroke-miterlimit="10" d="M 188.378906 31.671563 L 188.378906 197.991875 " transform="matrix(1, 0, 0, -1, 0, 201.952813)"/>
</g>
<g clip-path="url(#clip-4)">
<path fill="none" stroke-width="1" stroke-linecap="butt" stroke-linejoin="round" stroke="rgb(0%, 0%, 0%)" stroke-opacity="1" stroke-dasharray="3.7 1.6" stroke-miterlimit="10" d="M 290.179688 31.671563 L 290.179688 197.991875 " transform="matrix(1, 0, 0, -1, 0, 201.952813)"/>
</g>
<g clip-path="url(#clip-5)">
<path fill="none" stroke-width="1" stroke-linecap="butt" stroke-linejoin="round" stroke="rgb(0%, 0%, 0%)" stroke-opacity="1" stroke-dasharray="3.7 1.6" stroke-miterlimit="10" d="M 377.054688 31.671563 L 377.054688 197.991875 " transform="matrix(1, 0, 0, -1, 0, 201.952813)"/>
</g>
<path fill="none" stroke-width="0.8" stroke-linecap="square" stroke-linejoin="miter" stroke="rgb(0%, 0%, 0%)" stroke-opacity="1" stroke-miterlimit="10" d="M 38.671875 31.671563 L 38.671875 197.991875 " transform="matrix(1, 0, 0, -1, 0, 201.952813)"/>
<g clip-path="url(#clip-6)">
<path fill="none" stroke-width="0.8" stroke-linecap="square" stroke-linejoin="miter" stroke="rgb(0%, 0%, 0%)" stroke-opacity="1" stroke-miterlimit="10" d="M 485.070312 31.671563 L 485.070312 197.991875 " transform="matrix(1, 0, 0, -1, 0, 201.952813)"/>
</g>
<g clip-path="url(#clip-7)">
<path fill="none" stroke-width="0.8" stroke-linecap="square" stroke-linejoin="miter" stroke="rgb(0%, 0%, 0%)" stroke-opacity="1" stroke-miterlimit="10" d="M 38.671875 31.671563 L 485.070312 31.671563 " transform="matrix(1, 0, 0, -1, 0, 201.952813)"/>
</g>
<g clip-path="url(#clip-8)">
<path fill="none" stroke-width="0.8" stroke-linecap="square" stroke-linejoin="miter" stroke="rgb(0%, 0%, 0%)" stroke-opacity="1" stroke-miterlimit="10" d="M 38.671875 197.991875 L 485.070312 197.991875 " transform="matrix(1, 0, 0, -1, 0, 201.952813)"/>
</g>
<g fill="rgb(0%, 0%, 0%)" fill-opacity="1">
<use xlink:href="#glyph-0-14" x="168.016948" y="17.632036"/>
<use xlink:href="#glyph-0-0" x="173.586948" y="17.632036"/>
</g>
<g fill="rgb(0%, 0%, 0%)" fill-opacity="1">
<use xlink:href="#glyph-0-14" x="269.819819" y="17.632036"/>
<use xlink:href="#glyph-0-15" x="275.389819" y="17.632036"/>
</g>
<g fill="rgb(0%, 0%, 0%)" fill-opacity="1">
<use xlink:href="#glyph-0-14" x="356.694043" y="17.632036"/>
<use xlink:href="#glyph-0-16" x="362.264043" y="17.632036"/>
</g>
</svg>
